# xmcd CD database file
#
# Track frame offsets:
#	150
#	21537
#	42420
#	59267
#	77835
#	93907
#	116620
#	141202
#	161817
#	181722
#	202807
#	225660
#	246050
#	268387
#
# Disc length: 3878 seconds
#
# Revision: 0
# Processed by: cddbd v1.5.1PL0 Copyright (c) Steve Scherf et al.
# Submitted via: CDex 1.51
#
DISCID=bf0f240e
DTITLE=池田 政典 - ベストナウ
DYEAR=1990
DGENRE=Pop
TTITLE0=Quaterback
TTITLE1=ROCK'N ROLL BAND
TTITLE2=Never
TTITLE3=Beat of clash
TTITLE4=バックミラーに消えた恋
TTITLE5=Room Ocean View
TTITLE6=そしてBirthdayは終わった
TTITLE7=太陽ははなさない
TTITLE8=SHADOW DANCER
TTITLE9=FORMULA WIND
TTITLE10=MIDNIGHT ANGEL
TTITLE11=All or Nothing
TTITLE12=RIVER SIDE ジレンマ
TTITLE13=一人の青年
EXTD=YEAR: 90/12/12
EXTT0=
EXTT1=
EXTT2=
EXTT3=
EXTT4=
EXTT5=
EXTT6=
EXTT7=
EXTT8=
EXTT9=
EXTT10=
EXTT11=
EXTT12=
EXTT13=
PLAYORDER=
